<svg xmlns="http://www.w3.org/2000/svg" width="19.6" height="24.075" viewBox="0 0 19.6 24.075">
  <g id="pdf-file" transform="translate(-44.806)">
    <path id="Path_942" data-name="Path 942" d="M119.706,298.05c0-.4-.277-.638-.767-.638a1.7,1.7,0,0,0-.406.039v1.283a1.54,1.54,0,0,0,.329.025C119.384,298.759,119.706,298.495,119.706,298.05Z" transform="translate(-70.046 -282.561)" fill="#173684"/>
    <path id="Path_943" data-name="Path 943" d="M194.249,297.681a2.025,2.025,0,0,0-.445.039v2.841a1.777,1.777,0,0,0,.342.02,1.346,1.346,0,0,0,1.469-1.52A1.246,1.246,0,0,0,194.249,297.681Z" transform="translate(-141.558 -282.817)" fill="#173684"/>
    <path id="Path_944" data-name="Path 944" d="M58.321,0H48.651a2.566,2.566,0,0,0-2.562,2.562v9.475h-.25a1.032,1.032,0,0,0-1.033,1.033v6.262a1.032,1.032,0,0,0,1.033,1.032h.25v1.148a2.565,2.565,0,0,0,2.562,2.562H61.845a2.565,2.565,0,0,0,2.562-2.562V6.064ZM47.515,14.2a8.094,8.094,0,0,1,1.327-.09,2.082,2.082,0,0,1,1.327.348,1.269,1.269,0,0,1,.464,1.005,1.388,1.388,0,0,1-.4,1.031,2.014,2.014,0,0,1-1.411.457,2.543,2.543,0,0,1-.335-.019v1.553h-.973Zm14.33,8.306H48.651a.994.994,0,0,1-.992-.993V20.364h12.3a1.032,1.032,0,0,0,1.033-1.032V13.07a1.032,1.032,0,0,0-1.033-1.033h-12.3V2.562a.994.994,0,0,1,.992-.992l9.082-.009V4.918A1.778,1.778,0,0,0,59.51,6.7L62.8,6.686l.037,14.826A.993.993,0,0,1,61.845,22.506ZM51.26,18.465V14.2a8.844,8.844,0,0,1,1.327-.09,2.8,2.8,0,0,1,1.779.463,1.922,1.922,0,0,1,.734,1.637,2.2,2.2,0,0,1-.722,1.759,3.117,3.117,0,0,1-2,.56A8.5,8.5,0,0,1,51.26,18.465Zm7.032-2.525v.8H56.733v1.746h-.986V14.143H58.4v.805H56.733v.992Z" fill="#173684"/>
  </g>
</svg>
